<mxfile host="Electron" agent="Mozilla/5.0 (X11; Linux x86_64) AppleWebKit/537.36 (KHTML, like Gecko) draw.io/28.1.2 Chrome/138.0.7204.251 Electron/37.5.1 Safari/537.36" version="28.1.2">
  <diagram name="Page-1" id="dMcziW6OzH_ACKxJfpYF">
    <mxGraphModel dx="4293" dy="2623" grid="1" gridSize="10" guides="1" tooltips="1" connect="1" arrows="1" fold="1" page="1" pageScale="1" pageWidth="827" pageHeight="1169" math="0" shadow="0">
      <root>
        <mxCell id="0" />
        <mxCell id="1" parent="0" />
        <mxCell id="B0MSU_tYawjrUMa0_c1U-196" value="" style="rounded=0;whiteSpace=wrap;html=1;dashed=1;dashPattern=8 8;fillColor=none;" vertex="1" parent="1">
          <mxGeometry x="290" y="990" width="380" height="120" as="geometry" />
        </mxCell>
        <mxCell id="B0MSU_tYawjrUMa0_c1U-102" value="" style="rounded=0;whiteSpace=wrap;html=1;" vertex="1" parent="1">
          <mxGeometry x="620" y="481" width="340" height="279" as="geometry" />
        </mxCell>
        <mxCell id="B0MSU_tYawjrUMa0_c1U-84" value="" style="rounded=0;whiteSpace=wrap;html=1;container=0;" vertex="1" parent="1">
          <mxGeometry x="-260" y="481" width="280" height="279" as="geometry" />
        </mxCell>
        <mxCell id="B0MSU_tYawjrUMa0_c1U-44" value="" style="endArrow=none;html=1;rounded=0;strokeWidth=6;" edge="1" parent="1">
          <mxGeometry width="50" height="50" relative="1" as="geometry">
            <mxPoint x="160" y="20" as="sourcePoint" />
            <mxPoint x="480" y="20" as="targetPoint" />
          </mxGeometry>
        </mxCell>
        <mxCell id="B0MSU_tYawjrUMa0_c1U-45" value="" style="endArrow=none;html=1;rounded=0;strokeWidth=6;" edge="1" parent="1">
          <mxGeometry width="50" height="50" relative="1" as="geometry">
            <mxPoint x="160" y="60" as="sourcePoint" />
            <mxPoint x="480" y="60" as="targetPoint" />
          </mxGeometry>
        </mxCell>
        <mxCell id="B0MSU_tYawjrUMa0_c1U-46" value="" style="endArrow=none;html=1;rounded=0;strokeWidth=6;" edge="1" parent="1">
          <mxGeometry width="50" height="50" relative="1" as="geometry">
            <mxPoint x="160" y="100" as="sourcePoint" />
            <mxPoint x="480" y="100" as="targetPoint" />
          </mxGeometry>
        </mxCell>
        <mxCell id="B0MSU_tYawjrUMa0_c1U-47" value="" style="endArrow=none;html=1;rounded=0;strokeWidth=6;" edge="1" parent="1">
          <mxGeometry width="50" height="50" relative="1" as="geometry">
            <mxPoint x="160" y="140" as="sourcePoint" />
            <mxPoint x="480" y="140" as="targetPoint" />
          </mxGeometry>
        </mxCell>
        <mxCell id="B0MSU_tYawjrUMa0_c1U-48" value="" style="endArrow=none;html=1;rounded=0;strokeWidth=6;" edge="1" parent="1">
          <mxGeometry width="50" height="50" relative="1" as="geometry">
            <mxPoint x="160" y="180" as="sourcePoint" />
            <mxPoint x="480" y="180" as="targetPoint" />
          </mxGeometry>
        </mxCell>
        <mxCell id="B0MSU_tYawjrUMa0_c1U-49" value="" style="endArrow=none;html=1;rounded=0;strokeWidth=6;" edge="1" parent="1">
          <mxGeometry width="50" height="50" relative="1" as="geometry">
            <mxPoint x="160" y="220" as="sourcePoint" />
            <mxPoint x="480" y="220" as="targetPoint" />
          </mxGeometry>
        </mxCell>
        <mxCell id="B0MSU_tYawjrUMa0_c1U-50" value="" style="endArrow=none;html=1;rounded=0;strokeWidth=6;" edge="1" parent="1">
          <mxGeometry width="50" height="50" relative="1" as="geometry">
            <mxPoint x="160" y="260" as="sourcePoint" />
            <mxPoint x="480" y="260" as="targetPoint" />
          </mxGeometry>
        </mxCell>
        <mxCell id="B0MSU_tYawjrUMa0_c1U-51" value="" style="endArrow=none;html=1;rounded=0;strokeWidth=6;" edge="1" parent="1">
          <mxGeometry width="50" height="50" relative="1" as="geometry">
            <mxPoint x="160" y="300" as="sourcePoint" />
            <mxPoint x="480" y="300" as="targetPoint" />
          </mxGeometry>
        </mxCell>
        <mxCell id="B0MSU_tYawjrUMa0_c1U-54" value="" style="group;rotation=-180;" vertex="1" connectable="0" parent="1">
          <mxGeometry x="480" y="-20" width="90" height="360" as="geometry" />
        </mxCell>
        <mxCell id="B0MSU_tYawjrUMa0_c1U-52" value="" style="rounded=0;whiteSpace=wrap;html=1;rotation=-180;" vertex="1" parent="B0MSU_tYawjrUMa0_c1U-54">
          <mxGeometry x="30" y="20" width="60" height="320" as="geometry" />
        </mxCell>
        <mxCell id="B0MSU_tYawjrUMa0_c1U-53" value="" style="rounded=0;whiteSpace=wrap;html=1;rotation=-180;" vertex="1" parent="B0MSU_tYawjrUMa0_c1U-54">
          <mxGeometry width="30" height="360" as="geometry" />
        </mxCell>
        <mxCell id="B0MSU_tYawjrUMa0_c1U-174" value="" style="triangle;whiteSpace=wrap;html=1;rotation=90;" vertex="1" parent="B0MSU_tYawjrUMa0_c1U-54">
          <mxGeometry x="52.5" y="13" width="15" height="30" as="geometry" />
        </mxCell>
        <mxCell id="B0MSU_tYawjrUMa0_c1U-55" value="" style="group" vertex="1" connectable="0" parent="1">
          <mxGeometry x="70" y="-20" width="90" height="360" as="geometry" />
        </mxCell>
        <mxCell id="B0MSU_tYawjrUMa0_c1U-42" value="" style="rounded=0;whiteSpace=wrap;html=1;" vertex="1" parent="B0MSU_tYawjrUMa0_c1U-55">
          <mxGeometry y="20" width="60" height="320" as="geometry" />
        </mxCell>
        <mxCell id="B0MSU_tYawjrUMa0_c1U-43" value="" style="rounded=0;whiteSpace=wrap;html=1;" vertex="1" parent="B0MSU_tYawjrUMa0_c1U-55">
          <mxGeometry x="60" width="30" height="360" as="geometry" />
        </mxCell>
        <mxCell id="B0MSU_tYawjrUMa0_c1U-173" value="" style="triangle;whiteSpace=wrap;html=1;rotation=-90;" vertex="1" parent="B0MSU_tYawjrUMa0_c1U-55">
          <mxGeometry x="22.5" y="317" width="15" height="30" as="geometry" />
        </mxCell>
        <mxCell id="B0MSU_tYawjrUMa0_c1U-65" value="" style="group" vertex="1" connectable="0" parent="1">
          <mxGeometry x="-130" y="-81" width="161.25000000000003" height="441" as="geometry" />
        </mxCell>
        <mxCell id="B0MSU_tYawjrUMa0_c1U-27" value="" style="group;direction=east;rotation=-180;" vertex="1" connectable="0" parent="B0MSU_tYawjrUMa0_c1U-65">
          <mxGeometry x="40" y="61" width="121.25" height="380" as="geometry" />
        </mxCell>
        <mxCell id="B0MSU_tYawjrUMa0_c1U-61" value="" style="rounded=0;whiteSpace=wrap;html=1;" vertex="1" parent="B0MSU_tYawjrUMa0_c1U-27">
          <mxGeometry x="-180" y="-60" width="290" height="440" as="geometry" />
        </mxCell>
        <mxCell id="B0MSU_tYawjrUMa0_c1U-1" value="" style="rounded=0;whiteSpace=wrap;html=1;direction=east;rotation=-180;" vertex="1" parent="B0MSU_tYawjrUMa0_c1U-27">
          <mxGeometry x="40" width="80" height="360" as="geometry" />
        </mxCell>
        <mxCell id="B0MSU_tYawjrUMa0_c1U-15" value="" style="rounded=0;whiteSpace=wrap;html=1;direction=east;rotation=-180;" vertex="1" parent="B0MSU_tYawjrUMa0_c1U-27">
          <mxGeometry x="60" y="20" width="60" height="320" as="geometry" />
        </mxCell>
        <mxCell id="B0MSU_tYawjrUMa0_c1U-8" value="" style="endArrow=none;html=1;rounded=0;strokeWidth=2;" edge="1" parent="B0MSU_tYawjrUMa0_c1U-27">
          <mxGeometry width="50" height="50" relative="1" as="geometry">
            <mxPoint y="320" as="sourcePoint" />
            <mxPoint x="100" y="320" as="targetPoint" />
          </mxGeometry>
        </mxCell>
        <mxCell id="B0MSU_tYawjrUMa0_c1U-20" value="" style="endArrow=none;html=1;rounded=0;strokeWidth=2;" edge="1" parent="B0MSU_tYawjrUMa0_c1U-27">
          <mxGeometry width="50" height="50" relative="1" as="geometry">
            <mxPoint y="280" as="sourcePoint" />
            <mxPoint x="100" y="280" as="targetPoint" />
          </mxGeometry>
        </mxCell>
        <mxCell id="B0MSU_tYawjrUMa0_c1U-21" value="" style="endArrow=none;html=1;rounded=0;strokeWidth=2;" edge="1" parent="B0MSU_tYawjrUMa0_c1U-27">
          <mxGeometry width="50" height="50" relative="1" as="geometry">
            <mxPoint y="240" as="sourcePoint" />
            <mxPoint x="100" y="240" as="targetPoint" />
          </mxGeometry>
        </mxCell>
        <mxCell id="B0MSU_tYawjrUMa0_c1U-22" value="" style="endArrow=none;html=1;rounded=0;strokeWidth=2;" edge="1" parent="B0MSU_tYawjrUMa0_c1U-27">
          <mxGeometry width="50" height="50" relative="1" as="geometry">
            <mxPoint y="200" as="sourcePoint" />
            <mxPoint x="100" y="200" as="targetPoint" />
          </mxGeometry>
        </mxCell>
        <mxCell id="B0MSU_tYawjrUMa0_c1U-23" value="" style="endArrow=none;html=1;rounded=0;strokeWidth=2;" edge="1" parent="B0MSU_tYawjrUMa0_c1U-27">
          <mxGeometry width="50" height="50" relative="1" as="geometry">
            <mxPoint y="160" as="sourcePoint" />
            <mxPoint x="100" y="160" as="targetPoint" />
          </mxGeometry>
        </mxCell>
        <mxCell id="B0MSU_tYawjrUMa0_c1U-24" value="" style="endArrow=none;html=1;rounded=0;strokeWidth=2;" edge="1" parent="B0MSU_tYawjrUMa0_c1U-27">
          <mxGeometry width="50" height="50" relative="1" as="geometry">
            <mxPoint y="120" as="sourcePoint" />
            <mxPoint x="100" y="120" as="targetPoint" />
          </mxGeometry>
        </mxCell>
        <mxCell id="B0MSU_tYawjrUMa0_c1U-25" value="" style="endArrow=none;html=1;rounded=0;strokeWidth=2;" edge="1" parent="B0MSU_tYawjrUMa0_c1U-27">
          <mxGeometry width="50" height="50" relative="1" as="geometry">
            <mxPoint y="80" as="sourcePoint" />
            <mxPoint x="100" y="80" as="targetPoint" />
          </mxGeometry>
        </mxCell>
        <mxCell id="B0MSU_tYawjrUMa0_c1U-26" value="" style="endArrow=none;html=1;rounded=0;strokeWidth=2;" edge="1" parent="B0MSU_tYawjrUMa0_c1U-27">
          <mxGeometry width="50" height="50" relative="1" as="geometry">
            <mxPoint y="40" as="sourcePoint" />
            <mxPoint x="100" y="40" as="targetPoint" />
          </mxGeometry>
        </mxCell>
        <mxCell id="B0MSU_tYawjrUMa0_c1U-16" value="" style="rounded=0;whiteSpace=wrap;html=1;strokeColor=none;glass=0;direction=east;rotation=-180;" vertex="1" parent="B0MSU_tYawjrUMa0_c1U-27">
          <mxGeometry x="40" width="20" height="360" as="geometry" />
        </mxCell>
        <mxCell id="B0MSU_tYawjrUMa0_c1U-18" value="" style="endArrow=none;html=1;rounded=0;" edge="1" parent="B0MSU_tYawjrUMa0_c1U-27">
          <mxGeometry width="50" height="50" relative="1" as="geometry">
            <mxPoint x="80" as="sourcePoint" />
            <mxPoint x="40" as="targetPoint" />
          </mxGeometry>
        </mxCell>
        <mxCell id="B0MSU_tYawjrUMa0_c1U-19" value="" style="endArrow=none;html=1;rounded=0;" edge="1" parent="B0MSU_tYawjrUMa0_c1U-27">
          <mxGeometry width="50" height="50" relative="1" as="geometry">
            <mxPoint x="80" y="360" as="sourcePoint" />
            <mxPoint x="40" y="360" as="targetPoint" />
          </mxGeometry>
        </mxCell>
        <mxCell id="B0MSU_tYawjrUMa0_c1U-59" value="" style="triangle;whiteSpace=wrap;html=1;rotation=-90;" vertex="1" parent="B0MSU_tYawjrUMa0_c1U-27">
          <mxGeometry x="67.5" y="337" width="15" height="30" as="geometry" />
        </mxCell>
        <mxCell id="B0MSU_tYawjrUMa0_c1U-66" value="" style="group" vertex="1" connectable="0" parent="1">
          <mxGeometry x="610" y="-70" width="410" height="430" as="geometry" />
        </mxCell>
        <mxCell id="B0MSU_tYawjrUMa0_c1U-28" value="" style="group" vertex="1" connectable="0" parent="B0MSU_tYawjrUMa0_c1U-66">
          <mxGeometry y="50" width="410" height="380" as="geometry" />
        </mxCell>
        <mxCell id="B0MSU_tYawjrUMa0_c1U-62" value="" style="rounded=0;whiteSpace=wrap;html=1;" vertex="1" parent="B0MSU_tYawjrUMa0_c1U-28">
          <mxGeometry x="10" y="-60" width="400" height="440" as="geometry" />
        </mxCell>
        <mxCell id="B0MSU_tYawjrUMa0_c1U-29" value="" style="rounded=0;whiteSpace=wrap;html=1;" vertex="1" parent="B0MSU_tYawjrUMa0_c1U-28">
          <mxGeometry width="80" height="360" as="geometry" />
        </mxCell>
        <mxCell id="B0MSU_tYawjrUMa0_c1U-30" value="" style="rounded=0;whiteSpace=wrap;html=1;" vertex="1" parent="B0MSU_tYawjrUMa0_c1U-28">
          <mxGeometry y="20" width="60" height="320" as="geometry" />
        </mxCell>
        <mxCell id="B0MSU_tYawjrUMa0_c1U-31" value="" style="endArrow=none;html=1;rounded=0;strokeWidth=2;" edge="1" parent="B0MSU_tYawjrUMa0_c1U-28">
          <mxGeometry width="50" height="50" relative="1" as="geometry">
            <mxPoint x="120" y="40" as="sourcePoint" />
            <mxPoint x="20" y="40" as="targetPoint" />
          </mxGeometry>
        </mxCell>
        <mxCell id="B0MSU_tYawjrUMa0_c1U-32" value="" style="endArrow=none;html=1;rounded=0;strokeWidth=2;" edge="1" parent="B0MSU_tYawjrUMa0_c1U-28">
          <mxGeometry width="50" height="50" relative="1" as="geometry">
            <mxPoint x="120" y="80" as="sourcePoint" />
            <mxPoint x="20" y="80" as="targetPoint" />
          </mxGeometry>
        </mxCell>
        <mxCell id="B0MSU_tYawjrUMa0_c1U-33" value="" style="endArrow=none;html=1;rounded=0;strokeWidth=2;" edge="1" parent="B0MSU_tYawjrUMa0_c1U-28">
          <mxGeometry width="50" height="50" relative="1" as="geometry">
            <mxPoint x="120" y="120" as="sourcePoint" />
            <mxPoint x="20" y="120" as="targetPoint" />
          </mxGeometry>
        </mxCell>
        <mxCell id="B0MSU_tYawjrUMa0_c1U-34" value="" style="endArrow=none;html=1;rounded=0;strokeWidth=2;" edge="1" parent="B0MSU_tYawjrUMa0_c1U-28">
          <mxGeometry width="50" height="50" relative="1" as="geometry">
            <mxPoint x="120" y="160" as="sourcePoint" />
            <mxPoint x="20" y="160" as="targetPoint" />
          </mxGeometry>
        </mxCell>
        <mxCell id="B0MSU_tYawjrUMa0_c1U-35" value="" style="endArrow=none;html=1;rounded=0;strokeWidth=2;" edge="1" parent="B0MSU_tYawjrUMa0_c1U-28">
          <mxGeometry width="50" height="50" relative="1" as="geometry">
            <mxPoint x="120" y="200" as="sourcePoint" />
            <mxPoint x="20" y="200" as="targetPoint" />
          </mxGeometry>
        </mxCell>
        <mxCell id="B0MSU_tYawjrUMa0_c1U-36" value="" style="endArrow=none;html=1;rounded=0;strokeWidth=2;" edge="1" parent="B0MSU_tYawjrUMa0_c1U-28">
          <mxGeometry width="50" height="50" relative="1" as="geometry">
            <mxPoint x="120" y="240" as="sourcePoint" />
            <mxPoint x="20" y="240" as="targetPoint" />
          </mxGeometry>
        </mxCell>
        <mxCell id="B0MSU_tYawjrUMa0_c1U-37" value="" style="endArrow=none;html=1;rounded=0;strokeWidth=2;" edge="1" parent="B0MSU_tYawjrUMa0_c1U-28">
          <mxGeometry width="50" height="50" relative="1" as="geometry">
            <mxPoint x="120" y="280" as="sourcePoint" />
            <mxPoint x="20" y="280" as="targetPoint" />
          </mxGeometry>
        </mxCell>
        <mxCell id="B0MSU_tYawjrUMa0_c1U-38" value="" style="endArrow=none;html=1;rounded=0;strokeWidth=2;" edge="1" parent="B0MSU_tYawjrUMa0_c1U-28">
          <mxGeometry width="50" height="50" relative="1" as="geometry">
            <mxPoint x="120" y="320" as="sourcePoint" />
            <mxPoint x="20" y="320" as="targetPoint" />
          </mxGeometry>
        </mxCell>
        <mxCell id="B0MSU_tYawjrUMa0_c1U-39" value="" style="rounded=0;whiteSpace=wrap;html=1;strokeColor=none;glass=0;" vertex="1" parent="B0MSU_tYawjrUMa0_c1U-28">
          <mxGeometry x="60" width="20" height="360" as="geometry" />
        </mxCell>
        <mxCell id="B0MSU_tYawjrUMa0_c1U-40" value="" style="endArrow=none;html=1;rounded=0;" edge="1" parent="B0MSU_tYawjrUMa0_c1U-28">
          <mxGeometry width="50" height="50" relative="1" as="geometry">
            <mxPoint x="40" y="360" as="sourcePoint" />
            <mxPoint x="80" y="360" as="targetPoint" />
          </mxGeometry>
        </mxCell>
        <mxCell id="B0MSU_tYawjrUMa0_c1U-41" value="" style="endArrow=none;html=1;rounded=0;" edge="1" parent="B0MSU_tYawjrUMa0_c1U-28">
          <mxGeometry width="50" height="50" relative="1" as="geometry">
            <mxPoint x="40" as="sourcePoint" />
            <mxPoint x="80" as="targetPoint" />
          </mxGeometry>
        </mxCell>
        <mxCell id="B0MSU_tYawjrUMa0_c1U-60" value="" style="triangle;whiteSpace=wrap;html=1;rotation=90;" vertex="1" parent="B0MSU_tYawjrUMa0_c1U-28">
          <mxGeometry x="37" y="-7" width="15" height="30" as="geometry" />
        </mxCell>
        <mxCell id="B0MSU_tYawjrUMa0_c1U-67" value="&lt;font style=&quot;font-size: 20px;&quot;&gt;JTAG Programming: 8-Pins (&#39;4-wire&#39;), Fast,&amp;nbsp;&lt;/font&gt;&lt;div&gt;&lt;font style=&quot;font-size: 20px;&quot;&gt;Uses test, reset, and UCA0 pins&lt;/font&gt;&lt;/div&gt;" style="text;html=1;align=center;verticalAlign=middle;resizable=0;points=[];autosize=1;strokeColor=none;fillColor=none;" vertex="1" parent="1">
          <mxGeometry x="120" y="-91" width="410" height="60" as="geometry" />
        </mxCell>
        <mxCell id="B0MSU_tYawjrUMa0_c1U-72" value="" style="endArrow=none;html=1;rounded=0;strokeWidth=6;" edge="1" parent="1">
          <mxGeometry width="50" height="50" relative="1" as="geometry">
            <mxPoint x="160" y="579" as="sourcePoint" />
            <mxPoint x="480" y="579" as="targetPoint" />
          </mxGeometry>
        </mxCell>
        <mxCell id="B0MSU_tYawjrUMa0_c1U-73" value="" style="endArrow=none;html=1;rounded=0;strokeWidth=6;" edge="1" parent="1">
          <mxGeometry width="50" height="50" relative="1" as="geometry">
            <mxPoint x="160" y="619" as="sourcePoint" />
            <mxPoint x="480" y="619" as="targetPoint" />
          </mxGeometry>
        </mxCell>
        <mxCell id="B0MSU_tYawjrUMa0_c1U-74" value="" style="endArrow=none;html=1;rounded=0;strokeWidth=6;" edge="1" parent="1">
          <mxGeometry width="50" height="50" relative="1" as="geometry">
            <mxPoint x="160" y="659" as="sourcePoint" />
            <mxPoint x="480" y="659" as="targetPoint" />
          </mxGeometry>
        </mxCell>
        <mxCell id="B0MSU_tYawjrUMa0_c1U-75" value="" style="endArrow=none;html=1;rounded=0;strokeWidth=6;" edge="1" parent="1">
          <mxGeometry width="50" height="50" relative="1" as="geometry">
            <mxPoint x="160" y="699" as="sourcePoint" />
            <mxPoint x="480" y="699" as="targetPoint" />
          </mxGeometry>
        </mxCell>
        <mxCell id="B0MSU_tYawjrUMa0_c1U-79" value="" style="group" vertex="1" connectable="0" parent="1">
          <mxGeometry x="70" y="558" width="90" height="181" as="geometry" />
        </mxCell>
        <mxCell id="B0MSU_tYawjrUMa0_c1U-80" value="" style="rounded=0;whiteSpace=wrap;html=1;" vertex="1" parent="B0MSU_tYawjrUMa0_c1U-79">
          <mxGeometry y="10.055555555555555" width="60" height="160.88888888888889" as="geometry" />
        </mxCell>
        <mxCell id="B0MSU_tYawjrUMa0_c1U-81" value="" style="rounded=0;whiteSpace=wrap;html=1;" vertex="1" parent="B0MSU_tYawjrUMa0_c1U-79">
          <mxGeometry x="60" width="30" height="181" as="geometry" />
        </mxCell>
        <mxCell id="B0MSU_tYawjrUMa0_c1U-175" value="" style="triangle;whiteSpace=wrap;html=1;rotation=-90;" vertex="1" parent="B0MSU_tYawjrUMa0_c1U-79">
          <mxGeometry x="22.5" y="148" width="15" height="30" as="geometry" />
        </mxCell>
        <mxCell id="B0MSU_tYawjrUMa0_c1U-118" value="&lt;font style=&quot;font-size: 20px;&quot;&gt;SBW Programming: 4-Pins (&#39;2-wire&#39;), Slow,&amp;nbsp;&lt;/font&gt;&lt;div&gt;&lt;font style=&quot;font-size: 20px;&quot;&gt;Uses only test and reset pins&lt;/font&gt;&lt;/div&gt;" style="text;html=1;align=center;verticalAlign=middle;resizable=0;points=[];autosize=1;strokeColor=none;fillColor=none;" vertex="1" parent="1">
          <mxGeometry x="120" y="470" width="410" height="60" as="geometry" />
        </mxCell>
        <mxCell id="B0MSU_tYawjrUMa0_c1U-99" value="&lt;font style=&quot;font-size: 20px;&quot;&gt;Programming&amp;nbsp;&lt;/font&gt;&lt;div&gt;&lt;font style=&quot;font-size: 20px;&quot;&gt;Adapter&amp;nbsp;&lt;/font&gt;&lt;span style=&quot;font-size: 20px; background-color: transparent; color: light-dark(rgb(0, 0, 0), rgb(255, 255, 255));&quot;&gt;Board&lt;/span&gt;&lt;/div&gt;" style="text;html=1;align=center;verticalAlign=middle;resizable=0;points=[];autosize=1;strokeColor=none;fillColor=none;container=0;" vertex="1" parent="1">
          <mxGeometry x="-195" y="480" width="150" height="60" as="geometry" />
        </mxCell>
        <mxCell id="B0MSU_tYawjrUMa0_c1U-121" value="" style="group" vertex="1" connectable="0" parent="1">
          <mxGeometry x="-90" y="540" width="120.00000000000001" height="199" as="geometry" />
        </mxCell>
        <mxCell id="B0MSU_tYawjrUMa0_c1U-85" value="" style="rounded=0;whiteSpace=wrap;html=1;direction=east;rotation=-180;container=0;" vertex="1" parent="B0MSU_tYawjrUMa0_c1U-121">
          <mxGeometry x="40" width="80" height="199" as="geometry" />
        </mxCell>
        <mxCell id="B0MSU_tYawjrUMa0_c1U-86" value="" style="rounded=0;whiteSpace=wrap;html=1;direction=east;rotation=-180;container=0;" vertex="1" parent="B0MSU_tYawjrUMa0_c1U-121">
          <mxGeometry x="60" y="20" width="60" height="159" as="geometry" />
        </mxCell>
        <mxCell id="B0MSU_tYawjrUMa0_c1U-87" value="" style="endArrow=none;html=1;rounded=0;strokeWidth=2;" edge="1" parent="B0MSU_tYawjrUMa0_c1U-121">
          <mxGeometry width="50" height="50" relative="1" as="geometry">
            <mxPoint y="159" as="sourcePoint" />
            <mxPoint x="100" y="159" as="targetPoint" />
          </mxGeometry>
        </mxCell>
        <mxCell id="B0MSU_tYawjrUMa0_c1U-88" value="" style="endArrow=none;html=1;rounded=0;strokeWidth=2;" edge="1" parent="B0MSU_tYawjrUMa0_c1U-121">
          <mxGeometry width="50" height="50" relative="1" as="geometry">
            <mxPoint y="119" as="sourcePoint" />
            <mxPoint x="100" y="119" as="targetPoint" />
          </mxGeometry>
        </mxCell>
        <mxCell id="B0MSU_tYawjrUMa0_c1U-89" value="" style="endArrow=none;html=1;rounded=0;strokeWidth=2;" edge="1" parent="B0MSU_tYawjrUMa0_c1U-121">
          <mxGeometry width="50" height="50" relative="1" as="geometry">
            <mxPoint y="79" as="sourcePoint" />
            <mxPoint x="100" y="79" as="targetPoint" />
          </mxGeometry>
        </mxCell>
        <mxCell id="B0MSU_tYawjrUMa0_c1U-90" value="" style="endArrow=none;html=1;rounded=0;strokeWidth=2;" edge="1" parent="B0MSU_tYawjrUMa0_c1U-121">
          <mxGeometry width="50" height="50" relative="1" as="geometry">
            <mxPoint y="39" as="sourcePoint" />
            <mxPoint x="100" y="39" as="targetPoint" />
          </mxGeometry>
        </mxCell>
        <mxCell id="B0MSU_tYawjrUMa0_c1U-95" value="" style="rounded=0;whiteSpace=wrap;html=1;strokeColor=none;glass=0;direction=east;rotation=-180;container=0;" vertex="1" parent="B0MSU_tYawjrUMa0_c1U-121">
          <mxGeometry x="40" width="20" height="199" as="geometry" />
        </mxCell>
        <mxCell id="B0MSU_tYawjrUMa0_c1U-96" value="" style="endArrow=none;html=1;rounded=0;" edge="1" parent="B0MSU_tYawjrUMa0_c1U-121">
          <mxGeometry width="50" height="50" relative="1" as="geometry">
            <mxPoint x="80" as="sourcePoint" />
            <mxPoint x="40" as="targetPoint" />
          </mxGeometry>
        </mxCell>
        <mxCell id="B0MSU_tYawjrUMa0_c1U-97" value="" style="endArrow=none;html=1;rounded=0;" edge="1" parent="B0MSU_tYawjrUMa0_c1U-121">
          <mxGeometry width="50" height="50" relative="1" as="geometry">
            <mxPoint x="80" y="199" as="sourcePoint" />
            <mxPoint x="40" y="199" as="targetPoint" />
          </mxGeometry>
        </mxCell>
        <mxCell id="B0MSU_tYawjrUMa0_c1U-98" value="" style="triangle;whiteSpace=wrap;html=1;rotation=-90;container=0;" vertex="1" parent="B0MSU_tYawjrUMa0_c1U-121">
          <mxGeometry x="67.5" y="176" width="15" height="30" as="geometry" />
        </mxCell>
        <mxCell id="B0MSU_tYawjrUMa0_c1U-117" value="Target Board" style="text;html=1;align=center;verticalAlign=middle;resizable=0;points=[];autosize=1;strokeColor=none;fillColor=none;fontSize=20;" vertex="1" parent="1">
          <mxGeometry x="729" y="490" width="140" height="40" as="geometry" />
        </mxCell>
        <mxCell id="B0MSU_tYawjrUMa0_c1U-133" value="" style="group;rotation=-180;" vertex="1" connectable="0" parent="1">
          <mxGeometry x="610" y="540" width="120.00000000000001" height="199" as="geometry" />
        </mxCell>
        <mxCell id="B0MSU_tYawjrUMa0_c1U-134" value="" style="rounded=0;whiteSpace=wrap;html=1;direction=east;rotation=-360;container=0;" vertex="1" parent="B0MSU_tYawjrUMa0_c1U-133">
          <mxGeometry width="80" height="199" as="geometry" />
        </mxCell>
        <mxCell id="B0MSU_tYawjrUMa0_c1U-135" value="" style="rounded=0;whiteSpace=wrap;html=1;direction=east;rotation=-360;container=0;" vertex="1" parent="B0MSU_tYawjrUMa0_c1U-133">
          <mxGeometry y="20" width="60" height="159" as="geometry" />
        </mxCell>
        <mxCell id="B0MSU_tYawjrUMa0_c1U-136" value="" style="endArrow=none;html=1;rounded=0;strokeWidth=2;" edge="1" parent="B0MSU_tYawjrUMa0_c1U-133">
          <mxGeometry width="50" height="50" relative="1" as="geometry">
            <mxPoint x="120" y="40" as="sourcePoint" />
            <mxPoint x="20" y="40" as="targetPoint" />
          </mxGeometry>
        </mxCell>
        <mxCell id="B0MSU_tYawjrUMa0_c1U-137" value="" style="endArrow=none;html=1;rounded=0;strokeWidth=2;" edge="1" parent="B0MSU_tYawjrUMa0_c1U-133">
          <mxGeometry width="50" height="50" relative="1" as="geometry">
            <mxPoint x="120" y="80" as="sourcePoint" />
            <mxPoint x="20" y="80" as="targetPoint" />
          </mxGeometry>
        </mxCell>
        <mxCell id="B0MSU_tYawjrUMa0_c1U-138" value="" style="endArrow=none;html=1;rounded=0;strokeWidth=2;" edge="1" parent="B0MSU_tYawjrUMa0_c1U-133">
          <mxGeometry width="50" height="50" relative="1" as="geometry">
            <mxPoint x="120" y="120" as="sourcePoint" />
            <mxPoint x="20" y="120" as="targetPoint" />
          </mxGeometry>
        </mxCell>
        <mxCell id="B0MSU_tYawjrUMa0_c1U-139" value="" style="endArrow=none;html=1;rounded=0;strokeWidth=2;" edge="1" parent="B0MSU_tYawjrUMa0_c1U-133">
          <mxGeometry width="50" height="50" relative="1" as="geometry">
            <mxPoint x="120" y="160" as="sourcePoint" />
            <mxPoint x="20" y="160" as="targetPoint" />
          </mxGeometry>
        </mxCell>
        <mxCell id="B0MSU_tYawjrUMa0_c1U-140" value="" style="rounded=0;whiteSpace=wrap;html=1;strokeColor=none;glass=0;direction=east;rotation=-360;container=0;" vertex="1" parent="B0MSU_tYawjrUMa0_c1U-133">
          <mxGeometry x="60" width="20" height="199" as="geometry" />
        </mxCell>
        <mxCell id="B0MSU_tYawjrUMa0_c1U-141" value="" style="endArrow=none;html=1;rounded=0;" edge="1" parent="B0MSU_tYawjrUMa0_c1U-133">
          <mxGeometry width="50" height="50" relative="1" as="geometry">
            <mxPoint x="40" y="199" as="sourcePoint" />
            <mxPoint x="80" y="199" as="targetPoint" />
          </mxGeometry>
        </mxCell>
        <mxCell id="B0MSU_tYawjrUMa0_c1U-142" value="" style="endArrow=none;html=1;rounded=0;" edge="1" parent="B0MSU_tYawjrUMa0_c1U-133">
          <mxGeometry width="50" height="50" relative="1" as="geometry">
            <mxPoint x="40" as="sourcePoint" />
            <mxPoint x="80" as="targetPoint" />
          </mxGeometry>
        </mxCell>
        <mxCell id="B0MSU_tYawjrUMa0_c1U-143" value="" style="triangle;whiteSpace=wrap;html=1;rotation=-270;container=0;" vertex="1" parent="B0MSU_tYawjrUMa0_c1U-133">
          <mxGeometry x="38" y="-7" width="15" height="30" as="geometry" />
        </mxCell>
        <mxCell id="B0MSU_tYawjrUMa0_c1U-144" value="" style="group;rotation=-180;" vertex="1" connectable="0" parent="1">
          <mxGeometry x="480" y="548" width="90" height="181" as="geometry" />
        </mxCell>
        <mxCell id="B0MSU_tYawjrUMa0_c1U-145" value="" style="rounded=0;whiteSpace=wrap;html=1;rotation=-180;" vertex="1" parent="B0MSU_tYawjrUMa0_c1U-144">
          <mxGeometry x="30" y="10" width="60" height="160.88888888888889" as="geometry" />
        </mxCell>
        <mxCell id="B0MSU_tYawjrUMa0_c1U-146" value="" style="rounded=0;whiteSpace=wrap;html=1;rotation=-180;" vertex="1" parent="B0MSU_tYawjrUMa0_c1U-144">
          <mxGeometry width="30" height="181" as="geometry" />
        </mxCell>
        <mxCell id="B0MSU_tYawjrUMa0_c1U-176" value="" style="triangle;whiteSpace=wrap;html=1;rotation=90;" vertex="1" parent="B0MSU_tYawjrUMa0_c1U-144">
          <mxGeometry x="52.5" y="3" width="15" height="30" as="geometry" />
        </mxCell>
        <mxCell id="B0MSU_tYawjrUMa0_c1U-147" value="1:&amp;nbsp; UCA0_TX / JTAG_TDO" style="text;html=1;align=center;verticalAlign=middle;resizable=0;points=[];autosize=1;strokeColor=none;fillColor=none;fontSize=20;" vertex="1" parent="1">
          <mxGeometry x="729" width="260" height="40" as="geometry" />
        </mxCell>
        <mxCell id="B0MSU_tYawjrUMa0_c1U-148" value="2:&amp;nbsp; UCA0_RX / JTAG_TDI" style="text;html=1;align=center;verticalAlign=middle;resizable=0;points=[];autosize=1;strokeColor=none;fillColor=none;fontSize=20;" vertex="1" parent="1">
          <mxGeometry x="731" y="40" width="250" height="40" as="geometry" />
        </mxCell>
        <mxCell id="B0MSU_tYawjrUMa0_c1U-149" value="3:&amp;nbsp; VCC" style="text;html=1;align=center;verticalAlign=middle;resizable=0;points=[];autosize=1;strokeColor=none;fillColor=none;fontSize=20;" vertex="1" parent="1">
          <mxGeometry x="732" y="80" width="90" height="40" as="geometry" />
        </mxCell>
        <mxCell id="B0MSU_tYawjrUMa0_c1U-150" value="4:&amp;nbsp; UCA0_CLK / JTAG_TMS" style="text;html=1;align=center;verticalAlign=middle;resizable=0;points=[];autosize=1;strokeColor=none;fillColor=none;fontSize=20;" vertex="1" parent="1">
          <mxGeometry x="732" y="120" width="270" height="40" as="geometry" />
        </mxCell>
        <mxCell id="B0MSU_tYawjrUMa0_c1U-151" value="5:&amp;nbsp; UCA0_STE / JTAG_TCK" style="text;html=1;align=center;verticalAlign=middle;resizable=0;points=[];autosize=1;strokeColor=none;fillColor=none;fontSize=20;" vertex="1" parent="1">
          <mxGeometry x="731" y="159.5" width="270" height="40" as="geometry" />
        </mxCell>
        <mxCell id="B0MSU_tYawjrUMa0_c1U-152" value="6:&amp;nbsp; JTAG_TEST" style="text;html=1;align=center;verticalAlign=middle;resizable=0;points=[];autosize=1;strokeColor=none;fillColor=none;fontSize=20;" vertex="1" parent="1">
          <mxGeometry x="732" y="199.5" width="160" height="40" as="geometry" />
        </mxCell>
        <mxCell id="B0MSU_tYawjrUMa0_c1U-153" value="7:&amp;nbsp; GND" style="text;html=1;align=center;verticalAlign=middle;resizable=0;points=[];autosize=1;strokeColor=none;fillColor=none;fontSize=20;" vertex="1" parent="1">
          <mxGeometry x="729" y="240" width="100" height="40" as="geometry" />
        </mxCell>
        <mxCell id="B0MSU_tYawjrUMa0_c1U-154" value="8:&amp;nbsp; Reset" style="text;html=1;align=center;verticalAlign=middle;resizable=0;points=[];autosize=1;strokeColor=none;fillColor=none;fontSize=20;" vertex="1" parent="1">
          <mxGeometry x="732" y="279.5" width="100" height="40" as="geometry" />
        </mxCell>
        <mxCell id="B0MSU_tYawjrUMa0_c1U-155" value="1:&amp;nbsp; SBW_TDIO" style="text;html=1;align=center;verticalAlign=middle;resizable=0;points=[];autosize=1;strokeColor=none;fillColor=none;fontSize=20;" vertex="1" parent="1">
          <mxGeometry x="-248" y="678" width="160" height="40" as="geometry" />
        </mxCell>
        <mxCell id="B0MSU_tYawjrUMa0_c1U-156" value="2:&amp;nbsp; SBW_TCK" style="text;html=1;align=center;verticalAlign=middle;resizable=0;points=[];autosize=1;strokeColor=none;fillColor=none;fontSize=20;" vertex="1" parent="1">
          <mxGeometry x="-246" y="638" width="150" height="40" as="geometry" />
        </mxCell>
        <mxCell id="B0MSU_tYawjrUMa0_c1U-157" value="3:&amp;nbsp; VCC" style="text;html=1;align=center;verticalAlign=middle;resizable=0;points=[];autosize=1;strokeColor=none;fillColor=none;fontSize=20;" vertex="1" parent="1">
          <mxGeometry x="-243" y="599" width="90" height="40" as="geometry" />
        </mxCell>
        <mxCell id="B0MSU_tYawjrUMa0_c1U-158" value="4:&amp;nbsp; GND" style="text;html=1;align=center;verticalAlign=middle;resizable=0;points=[];autosize=1;strokeColor=none;fillColor=none;fontSize=20;" vertex="1" parent="1">
          <mxGeometry x="-247" y="559" width="100" height="40" as="geometry" />
        </mxCell>
        <mxCell id="B0MSU_tYawjrUMa0_c1U-159" value="4:&amp;nbsp; Reset / SBW_TDIO" style="text;html=1;align=center;verticalAlign=middle;resizable=0;points=[];autosize=1;strokeColor=none;fillColor=none;fontSize=20;" vertex="1" parent="1">
          <mxGeometry x="729" y="678.5" width="220" height="40" as="geometry" />
        </mxCell>
        <mxCell id="B0MSU_tYawjrUMa0_c1U-160" value="3:&amp;nbsp; TEST / SBW_TCK" style="text;html=1;align=center;verticalAlign=middle;resizable=0;points=[];autosize=1;strokeColor=none;fillColor=none;fontSize=20;" vertex="1" parent="1">
          <mxGeometry x="725" y="638.5" width="220" height="40" as="geometry" />
        </mxCell>
        <mxCell id="B0MSU_tYawjrUMa0_c1U-161" value="2:&amp;nbsp; VCC" style="text;html=1;align=center;verticalAlign=middle;resizable=0;points=[];autosize=1;strokeColor=none;fillColor=none;fontSize=20;" vertex="1" parent="1">
          <mxGeometry x="730" y="598.5" width="90" height="40" as="geometry" />
        </mxCell>
        <mxCell id="B0MSU_tYawjrUMa0_c1U-162" value="1:&amp;nbsp; GND" style="text;html=1;align=center;verticalAlign=middle;resizable=0;points=[];autosize=1;strokeColor=none;fillColor=none;fontSize=20;" vertex="1" parent="1">
          <mxGeometry x="725" y="558.5" width="100" height="40" as="geometry" />
        </mxCell>
        <mxCell id="B0MSU_tYawjrUMa0_c1U-165" value="8:&amp;nbsp; JTAG_TDO" style="text;html=1;align=center;verticalAlign=middle;resizable=0;points=[];autosize=1;strokeColor=none;fillColor=none;fontSize=20;" vertex="1" parent="1">
          <mxGeometry x="-249" y="0.25" width="150" height="40" as="geometry" />
        </mxCell>
        <mxCell id="B0MSU_tYawjrUMa0_c1U-166" value="7:&amp;nbsp; JTAG_TDI" style="text;html=1;align=center;verticalAlign=middle;resizable=0;points=[];autosize=1;strokeColor=none;fillColor=none;fontSize=20;" vertex="1" parent="1">
          <mxGeometry x="-249" y="40.25" width="140" height="40" as="geometry" />
        </mxCell>
        <mxCell id="B0MSU_tYawjrUMa0_c1U-167" value="6:&amp;nbsp; VCC" style="text;html=1;align=center;verticalAlign=middle;resizable=0;points=[];autosize=1;strokeColor=none;fillColor=none;fontSize=20;" vertex="1" parent="1">
          <mxGeometry x="-249" y="80.25" width="90" height="40" as="geometry" />
        </mxCell>
        <mxCell id="B0MSU_tYawjrUMa0_c1U-168" value="5:&amp;nbsp; JTAG_TMS" style="text;html=1;align=center;verticalAlign=middle;resizable=0;points=[];autosize=1;strokeColor=none;fillColor=none;fontSize=20;" vertex="1" parent="1">
          <mxGeometry x="-250" y="120.25" width="150" height="40" as="geometry" />
        </mxCell>
        <mxCell id="B0MSU_tYawjrUMa0_c1U-169" value="4:&amp;nbsp; JTAG_TCK" style="text;html=1;align=center;verticalAlign=middle;resizable=0;points=[];autosize=1;strokeColor=none;fillColor=none;fontSize=20;" vertex="1" parent="1">
          <mxGeometry x="-250" y="159.75" width="150" height="40" as="geometry" />
        </mxCell>
        <mxCell id="B0MSU_tYawjrUMa0_c1U-170" value="3:&amp;nbsp; JTAG_TEST" style="text;html=1;align=center;verticalAlign=middle;resizable=0;points=[];autosize=1;strokeColor=none;fillColor=none;fontSize=20;" vertex="1" parent="1">
          <mxGeometry x="-250" y="199.75" width="160" height="40" as="geometry" />
        </mxCell>
        <mxCell id="B0MSU_tYawjrUMa0_c1U-171" value="2:&amp;nbsp; GND" style="text;html=1;align=center;verticalAlign=middle;resizable=0;points=[];autosize=1;strokeColor=none;fillColor=none;fontSize=20;" vertex="1" parent="1">
          <mxGeometry x="-252" y="240.25" width="100" height="40" as="geometry" />
        </mxCell>
        <mxCell id="B0MSU_tYawjrUMa0_c1U-172" value="1:&amp;nbsp; Reset" style="text;html=1;align=center;verticalAlign=middle;resizable=0;points=[];autosize=1;strokeColor=none;fillColor=none;fontSize=20;" vertex="1" parent="1">
          <mxGeometry x="-249" y="279.75" width="100" height="40" as="geometry" />
        </mxCell>
        <mxCell id="B0MSU_tYawjrUMa0_c1U-197" value="Headerless Pogo Pin Interface (from above).&lt;div&gt;&lt;font style=&quot;color: rgb(0, 153, 0);&quot;&gt;JTAG&lt;/font&gt;: All 8 pins required.&lt;/div&gt;&lt;div&gt;&lt;font style=&quot;color: rgb(102, 0, 0);&quot;&gt;SBW&lt;/font&gt;: Only pins 1-4 required.&lt;/div&gt;" style="text;html=1;align=center;verticalAlign=middle;resizable=0;points=[];autosize=1;strokeColor=none;fillColor=none;fontSize=20;" vertex="1" parent="1">
          <mxGeometry x="-150" y="982" width="420" height="90" as="geometry" />
        </mxCell>
        <mxCell id="B0MSU_tYawjrUMa0_c1U-180" value="" style="ellipse;whiteSpace=wrap;html=1;fillColor=#006600;" vertex="1" parent="1">
          <mxGeometry x="540" y="1000" width="40" height="40" as="geometry" />
        </mxCell>
        <mxCell id="B0MSU_tYawjrUMa0_c1U-181" value="" style="ellipse;whiteSpace=wrap;html=1;fillColor=#006600;" vertex="1" parent="1">
          <mxGeometry x="620" y="1000" width="40" height="40" as="geometry" />
        </mxCell>
        <mxCell id="B0MSU_tYawjrUMa0_c1U-183" value="" style="ellipse;whiteSpace=wrap;html=1;fillColor=#006600;" vertex="1" parent="1">
          <mxGeometry x="500" y="1060" width="40" height="40" as="geometry" />
        </mxCell>
        <mxCell id="B0MSU_tYawjrUMa0_c1U-184" value="" style="ellipse;whiteSpace=wrap;html=1;fillColor=#006600;" vertex="1" parent="1">
          <mxGeometry x="580" y="1060" width="40" height="40" as="geometry" />
        </mxCell>
        <mxCell id="B0MSU_tYawjrUMa0_c1U-185" value="" style="triangle;whiteSpace=wrap;html=1;rotation=-90;" vertex="1" parent="1">
          <mxGeometry x="310" y="1055" width="20" height="30" as="geometry" />
        </mxCell>
        <mxCell id="B0MSU_tYawjrUMa0_c1U-186" value="1: JTAG_TDO / SBW_TDIO" style="text;html=1;align=center;verticalAlign=middle;whiteSpace=wrap;rounded=0;rotation=-45;fontSize=20;" vertex="1" parent="1">
          <mxGeometry x="271.55" y="876.95" width="255" height="30" as="geometry" />
        </mxCell>
        <mxCell id="B0MSU_tYawjrUMa0_c1U-187" value="2: VCC" style="text;html=1;align=center;verticalAlign=middle;whiteSpace=wrap;rounded=0;rotation=-45;fontSize=20;" vertex="1" parent="1">
          <mxGeometry x="381.34" y="940.16" width="75" height="30" as="geometry" />
        </mxCell>
        <mxCell id="B0MSU_tYawjrUMa0_c1U-188" value="4: JTAG_TCK / SBW_TCK" style="text;html=1;align=center;verticalAlign=middle;whiteSpace=wrap;rounded=0;rotation=-45;fontSize=20;" vertex="1" parent="1">
          <mxGeometry x="437.75" y="880.25" width="240" height="30" as="geometry" />
        </mxCell>
        <mxCell id="B0MSU_tYawjrUMa0_c1U-189" value="3: GND" style="text;html=1;align=center;verticalAlign=middle;whiteSpace=wrap;rounded=0;rotation=45;fontSize=20;" vertex="1" parent="1">
          <mxGeometry x="427.07" y="1127.07" width="70" height="30" as="geometry" />
        </mxCell>
        <mxCell id="B0MSU_tYawjrUMa0_c1U-190" value="6: JTAG_TMS" style="text;html=1;align=center;verticalAlign=middle;whiteSpace=wrap;rounded=0;rotation=-45;fontSize=20;" vertex="1" parent="1">
          <mxGeometry x="528.41" y="919.09" width="145" height="30" as="geometry" />
        </mxCell>
        <mxCell id="B0MSU_tYawjrUMa0_c1U-191" value="8: Reset" style="text;html=1;align=center;verticalAlign=middle;whiteSpace=wrap;rounded=0;rotation=-45;fontSize=20;" vertex="1" parent="1">
          <mxGeometry x="617.9" y="939.1" width="88" height="30" as="geometry" />
        </mxCell>
        <mxCell id="B0MSU_tYawjrUMa0_c1U-192" value="5: JTAG_TDI" style="text;html=1;align=center;verticalAlign=middle;whiteSpace=wrap;rounded=0;rotation=45;fontSize=20;" vertex="1" parent="1">
          <mxGeometry x="496.12" y="1146.62" width="127" height="30" as="geometry" />
        </mxCell>
        <mxCell id="B0MSU_tYawjrUMa0_c1U-193" value="7: JTAG_TDO" style="text;html=1;align=center;verticalAlign=middle;whiteSpace=wrap;rounded=0;rotation=45;fontSize=20;" vertex="1" parent="1">
          <mxGeometry x="572.68" y="1151.68" width="140" height="30" as="geometry" />
        </mxCell>
        <mxCell id="B0MSU_tYawjrUMa0_c1U-182" value="" style="ellipse;whiteSpace=wrap;html=1;rotation=45;fillColor=#006600;" vertex="1" parent="1">
          <mxGeometry x="420" y="1060" width="40" height="40" as="geometry" />
        </mxCell>
        <mxCell id="B0MSU_tYawjrUMa0_c1U-202" value="" style="verticalLabelPosition=bottom;verticalAlign=top;html=1;shape=mxgraph.basic.half_circle;rotation=-45;fillColor=#660000;" vertex="1" parent="1">
          <mxGeometry x="427" y="1077" width="40" height="20" as="geometry" />
        </mxCell>
        <mxCell id="B0MSU_tYawjrUMa0_c1U-179" value="" style="ellipse;whiteSpace=wrap;html=1;rotation=45;fillColor=#006600;" vertex="1" parent="1">
          <mxGeometry x="460" y="1000" width="40" height="40" as="geometry" />
        </mxCell>
        <mxCell id="B0MSU_tYawjrUMa0_c1U-201" value="" style="verticalLabelPosition=bottom;verticalAlign=top;html=1;shape=mxgraph.basic.half_circle;rotation=-45;fillColor=#660000;" vertex="1" parent="1">
          <mxGeometry x="467" y="1017" width="40" height="20" as="geometry" />
        </mxCell>
        <mxCell id="B0MSU_tYawjrUMa0_c1U-178" value="" style="ellipse;whiteSpace=wrap;html=1;rotation=45;fillColor=#006600;" vertex="1" parent="1">
          <mxGeometry x="380" y="1000" width="40" height="40" as="geometry" />
        </mxCell>
        <mxCell id="B0MSU_tYawjrUMa0_c1U-200" value="" style="verticalLabelPosition=bottom;verticalAlign=top;html=1;shape=mxgraph.basic.half_circle;rotation=-45;fillColor=#660000;" vertex="1" parent="1">
          <mxGeometry x="387" y="1017" width="40" height="20" as="geometry" />
        </mxCell>
        <mxCell id="B0MSU_tYawjrUMa0_c1U-177" value="" style="ellipse;whiteSpace=wrap;html=1;rotation=45;fillColor=#006600;" vertex="1" parent="1">
          <mxGeometry x="300" y="1000" width="40" height="40" as="geometry" />
        </mxCell>
        <mxCell id="B0MSU_tYawjrUMa0_c1U-199" value="" style="verticalLabelPosition=bottom;verticalAlign=top;html=1;shape=mxgraph.basic.half_circle;rotation=-45;fillColor=#660000;" vertex="1" parent="1">
          <mxGeometry x="307" y="1017" width="40" height="20" as="geometry" />
        </mxCell>
        <mxCell id="B0MSU_tYawjrUMa0_c1U-57" value="&lt;font style=&quot;font-size: 20px;&quot;&gt;Programming&amp;nbsp;&lt;/font&gt;&lt;div&gt;&lt;font style=&quot;font-size: 20px;&quot;&gt;Adapter&amp;nbsp;&lt;/font&gt;&lt;span style=&quot;font-size: 20px; background-color: transparent; color: light-dark(rgb(0, 0, 0), rgb(255, 255, 255));&quot;&gt;Board&lt;/span&gt;&lt;/div&gt;" style="text;html=1;align=center;verticalAlign=middle;resizable=0;points=[];autosize=1;strokeColor=none;fillColor=none;" vertex="1" parent="1">
          <mxGeometry x="-200" y="-80" width="150" height="60" as="geometry" />
        </mxCell>
        <mxCell id="B0MSU_tYawjrUMa0_c1U-58" value="Target Board" style="text;html=1;align=center;verticalAlign=middle;resizable=0;points=[];autosize=1;strokeColor=none;fillColor=none;fontSize=20;" vertex="1" parent="1">
          <mxGeometry x="760" y="-70" width="140" height="40" as="geometry" />
        </mxCell>
      </root>
    </mxGraphModel>
  </diagram>
</mxfile>
